<svg width="138" height="52" viewBox="0 0 138 52" fill="none" xmlns="http://www.w3.org/2000/svg">
<rect y="0.932892" width="138" height="50.1342" rx="22.5" fill="#FAFAFA"/>
<path d="M42.3605 26C42.3605 37.8431 33.1567 47.3389 21.9302 47.3389C10.7037 47.3389 1.5 37.8431 1.5 26C1.5 14.1569 10.7037 4.66107 21.9302 4.66107C33.1567 4.66107 42.3605 14.1569 42.3605 26Z" fill="#2D5BE3" stroke="#FFE500" stroke-width="3"/>
<path d="M63.666 16V8.86133H64.584L67.9336 14.8135H67.9678C67.9613 14.6442 67.9515 14.4473 67.9385 14.2227C67.9287 13.998 67.9206 13.7751 67.9141 13.5537C67.9076 13.3291 67.9043 13.1354 67.9043 12.9727V8.86133H68.6416V16H67.7432L64.3594 10.0283H64.3203C64.3301 10.2041 64.3398 10.4059 64.3496 10.6338C64.3626 10.8617 64.3724 11.0895 64.3789 11.3174C64.3887 11.542 64.3936 11.7438 64.3936 11.9229V16H63.666ZM69.6279 16V15.3604H72.1572V16H69.6279ZM70.8877 14.6621C70.6012 14.6621 70.3473 14.597 70.126 14.4668C69.9046 14.3366 69.7305 14.1462 69.6035 13.8955C69.4798 13.6416 69.418 13.3324 69.418 12.9678C69.418 12.4242 69.5514 12.0075 69.8184 11.7178C70.0853 11.4281 70.4531 11.2832 70.9219 11.2832C71.2083 11.2832 71.4622 11.3483 71.6836 11.4785C71.9049 11.6087 72.0791 11.7992 72.2061 12.0498C72.333 12.2972 72.3965 12.6032 72.3965 12.9678C72.3965 13.5146 72.2614 13.9346 71.9912 14.2275C71.721 14.5173 71.3532 14.6621 70.8877 14.6621ZM70.9072 14.1152C71.2035 14.1152 71.4199 14.0176 71.5566 13.8223C71.6934 13.627 71.7617 13.3421 71.7617 12.9678C71.7617 12.5902 71.6934 12.3086 71.5566 12.123C71.4232 11.9375 71.2067 11.8447 70.9072 11.8447C70.611 11.8447 70.3929 11.9375 70.2529 12.123C70.113 12.3086 70.043 12.5902 70.043 12.9678C70.043 13.3421 70.1113 13.627 70.248 13.8223C70.388 14.0176 70.6077 14.1152 70.9072 14.1152ZM76.4004 16H75.6094V10.9414C75.6094 10.7493 75.6094 10.585 75.6094 10.4482C75.6126 10.3083 75.6159 10.1813 75.6191 10.0674C75.6257 9.9502 75.6338 9.83138 75.6436 9.71094C75.5426 9.8151 75.4482 9.90462 75.3604 9.97949C75.2725 10.0511 75.1634 10.1406 75.0332 10.248L74.2178 10.9023L73.793 10.3506L75.7266 8.86133H76.4004V16ZM83.9688 16.0977C83.2917 16.0977 82.7546 15.8665 82.3574 15.4043C81.9635 14.9421 81.7666 14.2552 81.7666 13.3438C81.7666 12.4225 81.9684 11.7275 82.3721 11.2588C82.7757 10.7868 83.3128 10.5508 83.9834 10.5508C84.2666 10.5508 84.514 10.5882 84.7256 10.6631C84.9372 10.738 85.1195 10.8389 85.2725 10.9658C85.4255 11.0895 85.554 11.2311 85.6582 11.3906H85.7168C85.7038 11.2897 85.6908 11.1514 85.6777 10.9756C85.6647 10.7998 85.6582 10.6566 85.6582 10.5459V8.40234H86.4688V16H85.8145L85.6924 15.2383H85.6582C85.5573 15.3978 85.4287 15.5426 85.2725 15.6729C85.1195 15.8031 84.9355 15.9072 84.7207 15.9854C84.5091 16.0602 84.2585 16.0977 83.9688 16.0977ZM84.0957 15.4238C84.6686 15.4238 85.0739 15.2611 85.3115 14.9355C85.5492 14.61 85.668 14.1266 85.668 13.4854V13.3389C85.668 12.6585 85.554 12.1361 85.3262 11.7715C85.1016 11.4069 84.6914 11.2246 84.0957 11.2246C83.5977 11.2246 83.2249 11.4167 82.9775 11.8008C82.7301 12.1816 82.6064 12.7025 82.6064 13.3633C82.6064 14.0208 82.7285 14.5286 82.9727 14.8867C83.2201 15.2448 83.5944 15.4238 84.0957 15.4238ZM90.1895 10.5605C90.8275 10.5605 91.3011 10.7038 91.6104 10.9902C91.9196 11.2767 92.0742 11.734 92.0742 12.3623V16H91.4834L91.3271 15.209H91.2881C91.1383 15.4043 90.9821 15.5687 90.8193 15.7021C90.6566 15.8324 90.4678 15.9316 90.2529 16C90.0413 16.0651 89.7809 16.0977 89.4717 16.0977C89.1462 16.0977 88.8564 16.0407 88.6025 15.9268C88.3519 15.8128 88.1533 15.6403 88.0068 15.4092C87.8636 15.1781 87.792 14.8851 87.792 14.5303C87.792 13.9964 88.0036 13.5863 88.4268 13.2998C88.8499 13.0133 89.4945 12.8571 90.3604 12.8311L91.2832 12.792V12.4648C91.2832 12.0026 91.1839 11.6787 90.9854 11.4932C90.7868 11.3076 90.5068 11.2148 90.1455 11.2148C89.8656 11.2148 89.5986 11.2555 89.3447 11.3369C89.0908 11.4183 88.8499 11.5143 88.6221 11.625L88.373 11.0098C88.6139 10.8861 88.8906 10.7803 89.2031 10.6924C89.5156 10.6045 89.8444 10.5605 90.1895 10.5605ZM91.2734 13.3633L90.458 13.3975C89.7907 13.4235 89.3203 13.5326 89.0469 13.7246C88.7734 13.9167 88.6367 14.1885 88.6367 14.54C88.6367 14.846 88.7295 15.0723 88.915 15.2188C89.1006 15.3652 89.3464 15.4385 89.6523 15.4385C90.1276 15.4385 90.5166 15.3066 90.8193 15.043C91.1221 14.7793 91.2734 14.3838 91.2734 13.8564V13.3633ZM96.2783 10.5508C96.9131 10.5508 97.3932 10.707 97.7188 11.0195C98.0443 11.3288 98.207 11.8268 98.207 12.5137V16H97.4062V12.5674C97.4062 12.1214 97.3037 11.7878 97.0986 11.5664C96.8968 11.3451 96.5859 11.2344 96.166 11.2344C95.5736 11.2344 95.1569 11.402 94.916 11.7373C94.6751 12.0726 94.5547 12.5592 94.5547 13.1973V16H93.7441V10.6484H94.3984L94.5205 11.4199H94.5645C94.6784 11.2311 94.8232 11.0732 94.999 10.9463C95.1748 10.8161 95.3717 10.7184 95.5898 10.6533C95.8079 10.585 96.0374 10.5508 96.2783 10.5508ZM103.339 14.5352C103.339 14.877 103.253 15.165 103.08 15.3994C102.911 15.6305 102.667 15.8047 102.348 15.9219C102.032 16.0391 101.654 16.0977 101.215 16.0977C100.84 16.0977 100.517 16.0684 100.243 16.0098C99.9697 15.9512 99.7305 15.8682 99.5254 15.7607V15.0137C99.7435 15.1211 100.004 15.2188 100.307 15.3066C100.609 15.3945 100.919 15.4385 101.234 15.4385C101.697 15.4385 102.032 15.3636 102.24 15.2139C102.449 15.0641 102.553 14.8607 102.553 14.6035C102.553 14.457 102.51 14.3285 102.426 14.2178C102.344 14.1038 102.206 13.9948 102.011 13.8906C101.815 13.7832 101.545 13.666 101.2 13.5391C100.858 13.4089 100.562 13.2803 100.312 13.1533C100.064 13.0231 99.8721 12.8652 99.7354 12.6797C99.6019 12.4941 99.5352 12.2533 99.5352 11.957C99.5352 11.5046 99.7174 11.1579 100.082 10.917C100.45 10.6729 100.932 10.5508 101.527 10.5508C101.85 10.5508 102.151 10.5833 102.431 10.6484C102.714 10.7103 102.978 10.7949 103.222 10.9023L102.948 11.5518C102.727 11.4574 102.491 11.3776 102.24 11.3125C101.99 11.2474 101.734 11.2148 101.474 11.2148C101.099 11.2148 100.811 11.2767 100.609 11.4004C100.411 11.5241 100.312 11.6934 100.312 11.9082C100.312 12.0742 100.357 12.2109 100.448 12.3184C100.543 12.4258 100.692 12.5267 100.897 12.6211C101.103 12.7155 101.373 12.8262 101.708 12.9531C102.043 13.0768 102.333 13.2054 102.577 13.3389C102.821 13.4691 103.008 13.6286 103.139 13.8174C103.272 14.0029 103.339 14.2422 103.339 14.5352ZM108.056 16H107.24V8.40234H108.056V16ZM111.83 10.5508C112.286 10.5508 112.676 10.6517 113.002 10.8535C113.327 11.0553 113.576 11.3385 113.749 11.7031C113.922 12.0645 114.008 12.4876 114.008 12.9727V13.4756H110.312C110.321 14.1038 110.478 14.5824 110.78 14.9111C111.083 15.2399 111.509 15.4043 112.06 15.4043C112.398 15.4043 112.698 15.3734 112.958 15.3115C113.218 15.2497 113.489 15.1585 113.769 15.0381V15.751C113.498 15.8714 113.23 15.9593 112.963 16.0146C112.699 16.07 112.387 16.0977 112.025 16.0977C111.511 16.0977 111.062 15.9935 110.678 15.7852C110.297 15.5736 110.001 15.2643 109.789 14.8574C109.577 14.4505 109.472 13.9525 109.472 13.3633C109.472 12.7871 109.568 12.2891 109.76 11.8691C109.955 11.446 110.229 11.1204 110.58 10.8926C110.935 10.6647 111.352 10.5508 111.83 10.5508ZM111.82 11.2148C111.387 11.2148 111.042 11.3564 110.785 11.6396C110.528 11.9229 110.375 12.3184 110.326 12.8262H113.158C113.155 12.5072 113.104 12.2272 113.007 11.9863C112.912 11.7422 112.768 11.5534 112.572 11.4199C112.377 11.2832 112.126 11.2148 111.82 11.2148ZM118.847 14.5352C118.847 14.877 118.76 15.165 118.588 15.3994C118.419 15.6305 118.174 15.8047 117.855 15.9219C117.54 16.0391 117.162 16.0977 116.723 16.0977C116.348 16.0977 116.024 16.0684 115.751 16.0098C115.478 15.9512 115.238 15.8682 115.033 15.7607V15.0137C115.251 15.1211 115.512 15.2188 115.814 15.3066C116.117 15.3945 116.426 15.4385 116.742 15.4385C117.204 15.4385 117.54 15.3636 117.748 15.2139C117.956 15.0641 118.061 14.8607 118.061 14.6035C118.061 14.457 118.018 14.3285 117.934 14.2178C117.852 14.1038 117.714 13.9948 117.519 13.8906C117.323 13.7832 117.053 13.666 116.708 13.5391C116.366 13.4089 116.07 13.2803 115.819 13.1533C115.572 13.0231 115.38 12.8652 115.243 12.6797C115.11 12.4941 115.043 12.2533 115.043 11.957C115.043 11.5046 115.225 11.1579 115.59 10.917C115.958 10.6729 116.439 10.5508 117.035 10.5508C117.357 10.5508 117.659 10.5833 117.938 10.6484C118.222 10.7103 118.485 10.7949 118.729 10.9023L118.456 11.5518C118.235 11.4574 117.999 11.3776 117.748 11.3125C117.497 11.2474 117.242 11.2148 116.981 11.2148C116.607 11.2148 116.319 11.2767 116.117 11.4004C115.919 11.5241 115.819 11.6934 115.819 11.9082C115.819 12.0742 115.865 12.2109 115.956 12.3184C116.05 12.4258 116.2 12.5267 116.405 12.6211C116.61 12.7155 116.881 12.8262 117.216 12.9531C117.551 13.0768 117.841 13.2054 118.085 13.3389C118.329 13.4691 118.516 13.6286 118.646 13.8174C118.78 14.0029 118.847 14.2422 118.847 14.5352ZM57.8359 28.5352C57.8359 28.877 57.7497 29.165 57.5771 29.3994C57.4079 29.6305 57.1637 29.8047 56.8447 29.9219C56.529 30.0391 56.1514 30.0977 55.7119 30.0977C55.3376 30.0977 55.0137 30.0684 54.7402 30.0098C54.4668 29.9512 54.2275 29.8682 54.0225 29.7607V29.0137C54.2406 29.1211 54.501 29.2188 54.8037 29.3066C55.1064 29.3945 55.4157 29.4385 55.7314 29.4385C56.1937 29.4385 56.529 29.3636 56.7373 29.2139C56.9456 29.0641 57.0498 28.8607 57.0498 28.6035C57.0498 28.457 57.0075 28.3285 56.9229 28.2178C56.8415 28.1038 56.7031 27.9948 56.5078 27.8906C56.3125 27.7832 56.0423 27.666 55.6973 27.5391C55.3555 27.4089 55.0592 27.2803 54.8086 27.1533C54.5612 27.0231 54.3691 26.8652 54.2324 26.6797C54.099 26.4941 54.0322 26.2533 54.0322 25.957C54.0322 25.5046 54.2145 25.1579 54.5791 24.917C54.9469 24.6729 55.4287 24.5508 56.0244 24.5508C56.3467 24.5508 56.6478 24.5833 56.9277 24.6484C57.2109 24.7103 57.4746 24.7949 57.7188 24.9023L57.4453 25.5518C57.224 25.4574 56.988 25.3776 56.7373 25.3125C56.4867 25.2474 56.2311 25.2148 55.9707 25.2148C55.5964 25.2148 55.3083 25.2767 55.1064 25.4004C54.9079 25.5241 54.8086 25.6934 54.8086 25.9082C54.8086 26.0742 54.8542 26.2109 54.9453 26.3184C55.0397 26.4258 55.1895 26.5267 55.3945 26.6211C55.5996 26.7155 55.8698 26.8262 56.2051 26.9531C56.5404 27.0768 56.8301 27.2054 57.0742 27.3389C57.3184 27.4691 57.5055 27.6286 57.6357 27.8174C57.7692 28.0029 57.8359 28.2422 57.8359 28.5352ZM63.5586 24.6484V30H62.8945L62.7773 29.248H62.7334C62.6227 29.4336 62.4795 29.5898 62.3037 29.7168C62.1279 29.8438 61.9294 29.9382 61.708 30C61.4899 30.0651 61.2572 30.0977 61.0098 30.0977C60.5866 30.0977 60.2318 30.0293 59.9453 29.8926C59.6589 29.7559 59.4424 29.5443 59.2959 29.2578C59.1527 28.9714 59.0811 28.6035 59.0811 28.1543V24.6484H59.9014V28.0957C59.9014 28.5417 60.0023 28.8753 60.2041 29.0967C60.4059 29.3148 60.7135 29.4238 61.127 29.4238C61.5241 29.4238 61.8398 29.349 62.0742 29.1992C62.3118 29.0495 62.4827 28.8298 62.5869 28.54C62.6911 28.2471 62.7432 27.889 62.7432 27.4658V24.6484H63.5586ZM67.7871 24.5508C68.4544 24.5508 68.9867 24.7803 69.3838 25.2393C69.7809 25.6982 69.9795 26.3883 69.9795 27.3096C69.9795 27.9183 69.8883 28.4294 69.7061 28.8428C69.5238 29.2562 69.2666 29.5687 68.9346 29.7803C68.6058 29.9919 68.2168 30.0977 67.7676 30.0977C67.4844 30.0977 67.2354 30.0602 67.0205 29.9854C66.8057 29.9105 66.6217 29.8096 66.4688 29.6826C66.3158 29.5557 66.1888 29.4173 66.0879 29.2676H66.0293C66.0391 29.3945 66.0505 29.5475 66.0635 29.7266C66.0798 29.9056 66.0879 30.0618 66.0879 30.1953V32.3926H65.2725V24.6484H65.9414L66.0488 25.4395H66.0879C66.1921 25.2767 66.319 25.1286 66.4688 24.9951C66.6185 24.8584 66.8008 24.751 67.0156 24.6729C67.2337 24.5915 67.4909 24.5508 67.7871 24.5508ZM67.6455 25.2344C67.2744 25.2344 66.9749 25.306 66.7471 25.4492C66.5225 25.5924 66.3581 25.8073 66.2539 26.0938C66.1497 26.377 66.0944 26.7334 66.0879 27.1631V27.3193C66.0879 27.7718 66.1367 28.1543 66.2344 28.4668C66.3353 28.7793 66.4997 29.0169 66.7275 29.1797C66.9587 29.3424 67.2679 29.4238 67.6553 29.4238C67.9873 29.4238 68.264 29.3343 68.4854 29.1553C68.7067 28.9762 68.8711 28.7272 68.9785 28.4082C69.0892 28.0859 69.1445 27.7165 69.1445 27.2998C69.1445 26.6683 69.0208 26.167 68.7734 25.7959C68.5293 25.4215 68.1533 25.2344 67.6455 25.2344ZM73.9102 24.5508C74.5775 24.5508 75.1097 24.7803 75.5068 25.2393C75.904 25.6982 76.1025 26.3883 76.1025 27.3096C76.1025 27.9183 76.0114 28.4294 75.8291 28.8428C75.6468 29.2562 75.3896 29.5687 75.0576 29.7803C74.7288 29.9919 74.3398 30.0977 73.8906 30.0977C73.6074 30.0977 73.3584 30.0602 73.1436 29.9854C72.9287 29.9105 72.7448 29.8096 72.5918 29.6826C72.4388 29.5557 72.3118 29.4173 72.2109 29.2676H72.1523C72.1621 29.3945 72.1735 29.5475 72.1865 29.7266C72.2028 29.9056 72.2109 30.0618 72.2109 30.1953V32.3926H71.3955V24.6484H72.0645L72.1719 25.4395H72.2109C72.3151 25.2767 72.4421 25.1286 72.5918 24.9951C72.7415 24.8584 72.9238 24.751 73.1387 24.6729C73.3568 24.5915 73.6139 24.5508 73.9102 24.5508ZM73.7686 25.2344C73.3975 25.2344 73.098 25.306 72.8701 25.4492C72.6455 25.5924 72.4811 25.8073 72.377 26.0938C72.2728 26.377 72.2174 26.7334 72.2109 27.1631V27.3193C72.2109 27.7718 72.2598 28.1543 72.3574 28.4668C72.4583 28.7793 72.6227 29.0169 72.8506 29.1797C73.0817 29.3424 73.391 29.4238 73.7783 29.4238C74.1104 29.4238 74.387 29.3343 74.6084 29.1553C74.8298 28.9762 74.9941 28.7272 75.1016 28.4082C75.2122 28.0859 75.2676 27.7165 75.2676 27.2998C75.2676 26.6683 75.1439 26.167 74.8965 25.7959C74.6523 25.4215 74.2764 25.2344 73.7686 25.2344ZM78.334 30H77.5186V22.4023H78.334V30ZM82.1084 24.5508C82.5641 24.5508 82.9548 24.6517 83.2803 24.8535C83.6058 25.0553 83.8548 25.3385 84.0273 25.7031C84.1999 26.0645 84.2861 26.4876 84.2861 26.9727V27.4756H80.5898C80.5996 28.1038 80.7559 28.5824 81.0586 28.9111C81.3613 29.2399 81.7878 29.4043 82.3379 29.4043C82.6764 29.4043 82.9759 29.3734 83.2363 29.3115C83.4967 29.2497 83.7669 29.1585 84.0469 29.0381V29.751C83.7767 29.8714 83.5081 29.9593 83.2412 30.0146C82.9775 30.07 82.665 30.0977 82.3037 30.0977C81.7894 30.0977 81.3402 29.9935 80.9561 29.7852C80.5752 29.5736 80.279 29.2643 80.0674 28.8574C79.8558 28.4505 79.75 27.9525 79.75 27.3633C79.75 26.7871 79.846 26.2891 80.0381 25.8691C80.2334 25.446 80.5068 25.1204 80.8584 24.8926C81.2132 24.6647 81.6299 24.5508 82.1084 24.5508ZM82.0986 25.2148C81.6657 25.2148 81.3206 25.3564 81.0635 25.6396C80.8063 25.9229 80.6533 26.3184 80.6045 26.8262H83.4365C83.4333 26.5072 83.3828 26.2272 83.2852 25.9863C83.1908 25.7422 83.0459 25.5534 82.8506 25.4199C82.6553 25.2832 82.4046 25.2148 82.0986 25.2148ZM83.4512 22.3389V22.4365C83.3861 22.5309 83.2965 22.6449 83.1826 22.7783C83.0719 22.9085 82.9482 23.0469 82.8115 23.1934C82.6748 23.3366 82.5365 23.4733 82.3965 23.6035C82.2598 23.7337 82.1328 23.846 82.0156 23.9404H81.4736V23.8232C81.5778 23.6995 81.6917 23.5514 81.8154 23.3789C81.9391 23.2031 82.0596 23.0241 82.1768 22.8418C82.2939 22.6562 82.3916 22.4886 82.4697 22.3389H83.4512ZM91.4736 24.5508C92.0628 24.5508 92.5072 24.7054 92.8066 25.0146C93.1061 25.3206 93.2559 25.8138 93.2559 26.4941V30H92.4551V26.5332C92.4551 26.1003 92.3607 25.7764 92.1719 25.5615C91.9863 25.3434 91.7096 25.2344 91.3418 25.2344C90.8242 25.2344 90.4482 25.3841 90.2139 25.6836C89.9795 25.9831 89.8623 26.4242 89.8623 27.0068V30H89.0566V26.5332C89.0566 26.2435 89.0143 26.0026 88.9297 25.8105C88.8483 25.6185 88.7246 25.4753 88.5586 25.3809C88.3958 25.2832 88.1891 25.2344 87.9385 25.2344C87.5837 25.2344 87.2988 25.3076 87.084 25.4541C86.8691 25.6006 86.7129 25.8187 86.6152 26.1084C86.5208 26.3949 86.4736 26.748 86.4736 27.168V30H85.6631V24.6484H86.3174L86.4395 25.4053H86.4834C86.5908 25.2197 86.7259 25.0635 86.8887 24.9365C87.0514 24.8096 87.2337 24.7135 87.4355 24.6484C87.6374 24.5833 87.8522 24.5508 88.0801 24.5508C88.487 24.5508 88.8271 24.6273 89.1006 24.7803C89.3773 24.93 89.5775 25.1595 89.7012 25.4688H89.7451C89.9209 25.1595 90.1618 24.93 90.4678 24.7803C90.7738 24.6273 91.109 24.5508 91.4736 24.5508ZM96.9814 24.5508C97.4372 24.5508 97.8278 24.6517 98.1533 24.8535C98.4788 25.0553 98.7279 25.3385 98.9004 25.7031C99.0729 26.0645 99.1592 26.4876 99.1592 26.9727V27.4756H95.4629C95.4727 28.1038 95.6289 28.5824 95.9316 28.9111C96.2344 29.2399 96.6608 29.4043 97.2109 29.4043C97.5495 29.4043 97.849 29.3734 98.1094 29.3115C98.3698 29.2497 98.64 29.1585 98.9199 29.0381V29.751C98.6497 29.8714 98.3812 29.9593 98.1143 30.0146C97.8506 30.07 97.5381 30.0977 97.1768 30.0977C96.6624 30.0977 96.2132 29.9935 95.8291 29.7852C95.4482 29.5736 95.152 29.2643 94.9404 28.8574C94.7288 28.4505 94.623 27.9525 94.623 27.3633C94.623 26.7871 94.7191 26.2891 94.9111 25.8691C95.1064 25.446 95.3799 25.1204 95.7314 24.8926C96.0863 24.6647 96.5029 24.5508 96.9814 24.5508ZM96.9717 25.2148C96.5387 25.2148 96.1937 25.3564 95.9365 25.6396C95.6794 25.9229 95.5264 26.3184 95.4775 26.8262H98.3096C98.3063 26.5072 98.2559 26.2272 98.1582 25.9863C98.0638 25.7422 97.9189 25.5534 97.7236 25.4199C97.5283 25.2832 97.2777 25.2148 96.9717 25.2148ZM103.07 24.5508C103.705 24.5508 104.185 24.707 104.511 25.0195C104.836 25.3288 104.999 25.8268 104.999 26.5137V30H104.198V26.5674C104.198 26.1214 104.096 25.7878 103.891 25.5664C103.689 25.3451 103.378 25.2344 102.958 25.2344C102.366 25.2344 101.949 25.402 101.708 25.7373C101.467 26.0726 101.347 26.5592 101.347 27.1973V30H100.536V24.6484H101.19L101.312 25.4199H101.356C101.47 25.2311 101.615 25.0732 101.791 24.9463C101.967 24.8161 102.164 24.7184 102.382 24.6533C102.6 24.585 102.829 24.5508 103.07 24.5508ZM108.397 29.4336C108.531 29.4336 108.668 29.4222 108.808 29.3994C108.948 29.3766 109.062 29.349 109.149 29.3164V29.9463C109.055 29.9886 108.923 30.0244 108.754 30.0537C108.588 30.083 108.425 30.0977 108.266 30.0977C107.982 30.0977 107.725 30.0488 107.494 29.9512C107.263 29.8503 107.077 29.681 106.938 29.4434C106.801 29.2057 106.732 28.877 106.732 28.457V25.2832H105.971V24.8877L106.737 24.5703L107.06 23.4082H107.548V24.6484H109.115V25.2832H107.548V28.4326C107.548 28.7679 107.624 29.0186 107.777 29.1846C107.934 29.3506 108.14 29.4336 108.397 29.4336ZM113.695 28.5352C113.695 28.877 113.609 29.165 113.437 29.3994C113.267 29.6305 113.023 29.8047 112.704 29.9219C112.388 30.0391 112.011 30.0977 111.571 30.0977C111.197 30.0977 110.873 30.0684 110.6 30.0098C110.326 29.9512 110.087 29.8682 109.882 29.7607V29.0137C110.1 29.1211 110.36 29.2188 110.663 29.3066C110.966 29.3945 111.275 29.4385 111.591 29.4385C112.053 29.4385 112.388 29.3636 112.597 29.2139C112.805 29.0641 112.909 28.8607 112.909 28.6035C112.909 28.457 112.867 28.3285 112.782 28.2178C112.701 28.1038 112.562 27.9948 112.367 27.8906C112.172 27.7832 111.902 27.666 111.557 27.5391C111.215 27.4089 110.919 27.2803 110.668 27.1533C110.421 27.0231 110.229 26.8652 110.092 26.6797C109.958 26.4941 109.892 26.2533 109.892 25.957C109.892 25.5046 110.074 25.1579 110.438 24.917C110.806 24.6729 111.288 24.5508 111.884 24.5508C112.206 24.5508 112.507 24.5833 112.787 24.6484C113.07 24.7103 113.334 24.7949 113.578 24.9023L113.305 25.5518C113.083 25.4574 112.847 25.3776 112.597 25.3125C112.346 25.2474 112.09 25.2148 111.83 25.2148C111.456 25.2148 111.168 25.2767 110.966 25.4004C110.767 25.5241 110.668 25.6934 110.668 25.9082C110.668 26.0742 110.714 26.2109 110.805 26.3184C110.899 26.4258 111.049 26.5267 111.254 26.6211C111.459 26.7155 111.729 26.8262 112.064 26.9531C112.4 27.0768 112.689 27.2054 112.934 27.3389C113.178 27.4691 113.365 27.6286 113.495 27.8174C113.629 28.0029 113.695 28.2422 113.695 28.5352ZM119.501 30.0977C118.824 30.0977 118.287 29.8665 117.89 29.4043C117.496 28.9421 117.299 28.2552 117.299 27.3438C117.299 26.4225 117.501 25.7275 117.904 25.2588C118.308 24.7868 118.845 24.5508 119.516 24.5508C119.799 24.5508 120.046 24.5882 120.258 24.6631C120.469 24.738 120.652 24.8389 120.805 24.9658C120.958 25.0895 121.086 25.2311 121.19 25.3906H121.249C121.236 25.2897 121.223 25.1514 121.21 24.9756C121.197 24.7998 121.19 24.6566 121.19 24.5459V22.4023H122.001V30H121.347L121.225 29.2383H121.19C121.09 29.3978 120.961 29.5426 120.805 29.6729C120.652 29.8031 120.468 29.9072 120.253 29.9854C120.041 30.0602 119.791 30.0977 119.501 30.0977ZM119.628 29.4238C120.201 29.4238 120.606 29.2611 120.844 28.9355C121.081 28.61 121.2 28.1266 121.2 27.4854V27.3389C121.2 26.6585 121.086 26.1361 120.858 25.7715C120.634 25.4069 120.224 25.2246 119.628 25.2246C119.13 25.2246 118.757 25.4167 118.51 25.8008C118.262 26.1816 118.139 26.7025 118.139 27.3633C118.139 28.0208 118.261 28.5286 118.505 28.8867C118.752 29.2448 119.127 29.4238 119.628 29.4238ZM125.78 24.5508C126.236 24.5508 126.627 24.6517 126.952 24.8535C127.278 25.0553 127.527 25.3385 127.699 25.7031C127.872 26.0645 127.958 26.4876 127.958 26.9727V27.4756H124.262C124.271 28.1038 124.428 28.5824 124.73 28.9111C125.033 29.2399 125.46 29.4043 126.01 29.4043C126.348 29.4043 126.648 29.3734 126.908 29.3115C127.169 29.2497 127.439 29.1585 127.719 29.0381V29.751C127.449 29.8714 127.18 29.9593 126.913 30.0146C126.649 30.07 126.337 30.0977 125.976 30.0977C125.461 30.0977 125.012 29.9935 124.628 29.7852C124.247 29.5736 123.951 29.2643 123.739 28.8574C123.528 28.4505 123.422 27.9525 123.422 27.3633C123.422 26.7871 123.518 26.2891 123.71 25.8691C123.905 25.446 124.179 25.1204 124.53 24.8926C124.885 24.6647 125.302 24.5508 125.78 24.5508ZM125.771 25.2148C125.338 25.2148 124.993 25.3564 124.735 25.6396C124.478 25.9229 124.325 26.3184 124.276 26.8262H127.108C127.105 26.5072 127.055 26.2272 126.957 25.9863C126.863 25.7422 126.718 25.5534 126.522 25.4199C126.327 25.2832 126.076 25.2148 125.771 25.2148ZM82.499 42.5352C82.499 42.877 82.4128 43.165 82.2402 43.3994C82.071 43.6305 81.8268 43.8047 81.5078 43.9219C81.1921 44.0391 80.8145 44.0977 80.375 44.0977C80.0007 44.0977 79.6768 44.0684 79.4033 44.0098C79.1299 43.9512 78.8906 43.8682 78.6855 43.7607V43.0137C78.9036 43.1211 79.1641 43.2188 79.4668 43.3066C79.7695 43.3945 80.0788 43.4385 80.3945 43.4385C80.8568 43.4385 81.1921 43.3636 81.4004 43.2139C81.6087 43.0641 81.7129 42.8607 81.7129 42.6035C81.7129 42.457 81.6706 42.3285 81.5859 42.2178C81.5046 42.1038 81.3662 41.9948 81.1709 41.8906C80.9756 41.7832 80.7054 41.666 80.3604 41.5391C80.0186 41.4089 79.7223 41.2803 79.4717 41.1533C79.2243 41.0231 79.0322 40.8652 78.8955 40.6797C78.762 40.4941 78.6953 40.2533 78.6953 39.957C78.6953 39.5046 78.8776 39.1579 79.2422 38.917C79.61 38.6729 80.0918 38.5508 80.6875 38.5508C81.0098 38.5508 81.3109 38.5833 81.5908 38.6484C81.874 38.7103 82.1377 38.7949 82.3818 38.9023L82.1084 39.5518C81.887 39.4574 81.651 39.3776 81.4004 39.3125C81.1497 39.2474 80.8942 39.2148 80.6338 39.2148C80.2594 39.2148 79.9714 39.2767 79.7695 39.4004C79.571 39.5241 79.4717 39.6934 79.4717 39.9082C79.4717 40.0742 79.5173 40.2109 79.6084 40.3184C79.7028 40.4258 79.8525 40.5267 80.0576 40.6211C80.2627 40.7155 80.5329 40.8262 80.8682 40.9531C81.2035 41.0768 81.4932 41.2054 81.7373 41.3389C81.9814 41.4691 82.1686 41.6286 82.2988 41.8174C82.4323 42.0029 82.499 42.2422 82.499 42.5352ZM85.8047 38.5605C86.4427 38.5605 86.9163 38.7038 87.2256 38.9902C87.5348 39.2767 87.6895 39.734 87.6895 40.3623V44H87.0986L86.9424 43.209H86.9033C86.7536 43.4043 86.5973 43.5687 86.4346 43.7021C86.2718 43.8324 86.083 43.9316 85.8682 44C85.6566 44.0651 85.3962 44.0977 85.0869 44.0977C84.7614 44.0977 84.4717 44.0407 84.2178 43.9268C83.9671 43.8128 83.7686 43.6403 83.6221 43.4092C83.4788 43.1781 83.4072 42.8851 83.4072 42.5303C83.4072 41.9964 83.6188 41.5863 84.042 41.2998C84.4652 41.0133 85.1097 40.8571 85.9756 40.8311L86.8984 40.792V40.4648C86.8984 40.0026 86.7992 39.6787 86.6006 39.4932C86.402 39.3076 86.1221 39.2148 85.7607 39.2148C85.4808 39.2148 85.2139 39.2555 84.96 39.3369C84.7061 39.4183 84.4652 39.5143 84.2373 39.625L83.9883 39.0098C84.2292 38.8861 84.5059 38.7803 84.8184 38.6924C85.1309 38.6045 85.4596 38.5605 85.8047 38.5605ZM86.8887 41.3633L86.0732 41.3975C85.4059 41.4235 84.9355 41.5326 84.6621 41.7246C84.3887 41.9167 84.252 42.1885 84.252 42.54C84.252 42.846 84.3447 43.0723 84.5303 43.2188C84.7158 43.3652 84.9616 43.4385 85.2676 43.4385C85.7428 43.4385 86.1318 43.3066 86.4346 43.043C86.7373 42.7793 86.8887 42.3838 86.8887 41.8564V41.3633ZM91.8936 38.5508C92.5283 38.5508 93.0085 38.707 93.334 39.0195C93.6595 39.3288 93.8223 39.8268 93.8223 40.5137V44H93.0215V40.5674C93.0215 40.1214 92.9189 39.7878 92.7139 39.5664C92.512 39.3451 92.2012 39.2344 91.7812 39.2344C91.1888 39.2344 90.7721 39.402 90.5312 39.7373C90.2904 40.0726 90.1699 40.5592 90.1699 41.1973V44H89.3594V38.6484H90.0137L90.1357 39.4199H90.1797C90.2936 39.2311 90.4385 39.0732 90.6143 38.9463C90.79 38.8161 90.987 38.7184 91.2051 38.6533C91.4232 38.585 91.6527 38.5508 91.8936 38.5508ZM97.2207 43.4336C97.3542 43.4336 97.4909 43.4222 97.6309 43.3994C97.7708 43.3766 97.8848 43.349 97.9727 43.3164V43.9463C97.8783 43.9886 97.7464 44.0244 97.5771 44.0537C97.4111 44.083 97.2484 44.0977 97.0889 44.0977C96.8057 44.0977 96.5485 44.0488 96.3174 43.9512C96.0863 43.8503 95.9007 43.681 95.7607 43.4434C95.624 43.2057 95.5557 42.877 95.5557 42.457V39.2832H94.7939V38.8877L95.5605 38.5703L95.8828 37.4082H96.3711V38.6484H97.9385V39.2832H96.3711V42.4326C96.3711 42.7679 96.4476 43.0186 96.6006 43.1846C96.7568 43.3506 96.9635 43.4336 97.2207 43.4336ZM101.117 38.5508C101.573 38.5508 101.964 38.6517 102.289 38.8535C102.615 39.0553 102.864 39.3385 103.036 39.7031C103.209 40.0645 103.295 40.4876 103.295 40.9727V41.4756H99.5986C99.6084 42.1038 99.7646 42.5824 100.067 42.9111C100.37 43.2399 100.797 43.4043 101.347 43.4043C101.685 43.4043 101.985 43.3734 102.245 43.3115C102.506 43.2497 102.776 43.1585 103.056 43.0381V43.751C102.785 43.8714 102.517 43.9593 102.25 44.0146C101.986 44.07 101.674 44.0977 101.312 44.0977C100.798 44.0977 100.349 43.9935 99.9648 43.7852C99.584 43.5736 99.2878 43.2643 99.0762 42.8574C98.8646 42.4505 98.7588 41.9525 98.7588 41.3633C98.7588 40.7871 98.8548 40.2891 99.0469 39.8691C99.2422 39.446 99.5156 39.1204 99.8672 38.8926C100.222 38.6647 100.639 38.5508 101.117 38.5508ZM101.107 39.2148C100.674 39.2148 100.329 39.3564 100.072 39.6396C99.8151 39.9229 99.6621 40.3184 99.6133 40.8262H102.445C102.442 40.5072 102.392 40.2272 102.294 39.9863C102.2 39.7422 102.055 39.5534 101.859 39.4199C101.664 39.2832 101.413 39.2148 101.107 39.2148ZM102.46 36.3389V36.4365C102.395 36.5309 102.305 36.6449 102.191 36.7783C102.081 36.9085 101.957 37.0469 101.82 37.1934C101.684 37.3366 101.545 37.4733 101.405 37.6035C101.269 37.7337 101.142 37.846 101.024 37.9404H100.482V37.8232C100.587 37.6995 100.701 37.5514 100.824 37.3789C100.948 37.2031 101.068 37.0241 101.186 36.8418C101.303 36.6562 101.4 36.4886 101.479 36.3389H102.46Z" fill="#1E323C"/>
<path d="M33.5924 17.1294C33.0115 16.3586 32.1019 15.924 31.1524 15.924H30.086C30.1 15.6104 30.1115 15.4177 30.1185 15.1579C30.1319 14.6895 29.7653 14.302 29.3088 14.302H14.5599C14.1028 14.302 13.7367 14.6895 13.7497 15.1579C13.7572 15.4172 13.7682 15.6099 13.7821 15.924H12.7152C11.7657 15.924 10.8566 16.3586 10.2757 17.1294C9.69532 17.9002 9.49203 18.8636 9.7183 19.8086L9.74977 19.9275C10.7707 24.0028 13.6937 26.9522 16.7002 26.9522H16.7007C16.8715 26.9522 16.9314 26.9409 17.1008 26.9219C17.9049 27.9981 18.8974 28.8073 19.6881 29.2804V30.5539C19.6881 30.8937 19.9563 31.1689 20.2875 31.1689H20.6366V33.926H20.2875C19.9563 33.926 19.6881 34.2012 19.6881 34.541V36.1963H19.0483C18.7171 36.1963 18.4489 36.4715 18.4489 36.8113V37.9803H17.4184C17.0888 37.9803 16.819 38.257 16.819 38.5953V39.9262H26.6255V38.5953C26.6255 38.2555 26.3573 37.9803 26.0261 37.9803H25.0122V36.8113C25.0122 36.4715 24.7439 36.1963 24.4128 36.1963H23.7984V34.541C23.7984 34.2012 23.5302 33.926 23.199 33.926H22.8499V31.1689H23.199C23.5302 31.1689 23.7984 30.8937 23.7984 30.5539V29.2804C24.9048 28.8073 25.7729 27.9986 26.5776 26.9224C26.7469 26.9414 26.9582 26.9532 27.129 26.9532C30.1354 26.9532 33.0789 23.9951 34.0994 19.9204C34.1104 19.8773 34.1308 19.8522 34.1413 19.8092C34.3661 18.8636 34.1728 17.8996 33.5924 17.1294ZM11.0584 19.5744L11.0305 19.4596C10.9021 18.9236 11.02 18.3332 11.3531 17.8971C11.6893 17.4574 12.1948 17.1719 12.7392 17.1719H13.8915C14.2272 20.4518 15.0963 23.3309 16.3191 25.51C14.0833 25.2528 11.8676 22.8062 11.0584 19.5744ZM32.8382 19.4602C32.8292 19.4976 32.8202 19.535 32.8102 19.5734C32.0005 22.8062 29.7853 25.2528 27.5491 25.51C28.7718 23.3309 29.6409 20.4518 29.9766 17.1719H31.1289C31.6739 17.1719 32.1788 17.4574 32.5155 17.8971C32.8492 18.3332 32.9665 18.9241 32.8382 19.4602Z" fill="#FFE600"/>
<path d="M21.9302 17.6443L22.7708 20.3387H25.4912L23.2904 22.0039L24.131 24.6982L21.9302 23.033L19.7294 24.6982L20.5701 22.0039L18.3693 20.3387H21.0896L21.9302 17.6443Z" fill="#2D5BE3"/>
</svg>
