<svg width="138" height="52" viewBox="0 0 138 52" fill="none" xmlns="http://www.w3.org/2000/svg">
<path d="M115.5 0.865784H22.5C10.0736 0.865784 0 10.9394 0 23.3658V28.5C0 40.9264 10.0736 51 22.5 51H115.5C127.926 51 138 40.9264 138 28.5V23.3658C138 10.9394 127.926 0.865784 115.5 0.865784Z" fill="#FAFAFA"/>
<path d="M42.3605 25.9329C42.3605 37.776 33.1567 47.2718 21.9302 47.2718C10.7037 47.2718 1.5 37.776 1.5 25.9329C1.5 14.0898 10.7037 4.59396 21.9302 4.59396C33.1567 4.59396 42.3605 14.0898 42.3605 25.9329Z" fill="#D5E14F" stroke="#2D5BE3" stroke-width="3"/>
<path d="M31.7834 34.9996V19.7649H12.0771V34.9996L11.7675 37.6309H12.0771H31.7834H32.093L31.7834 34.9996Z" fill="#2D5BE3"/>
<path d="M21.9302 25.3758L22.7708 28.0702H25.4912L23.2904 29.7354L24.131 32.4298L21.9302 30.7646L19.7294 32.4298L20.5701 29.7354L18.3693 28.0702H21.0896L21.9302 25.3758Z" fill="#FFE600"/>
<path d="M27.2204 19.3442H25.5093V18.4781C25.5093 16.482 23.9041 14.853 21.9322 14.853C19.9604 14.853 18.3511 16.4779 18.3511 18.4781V19.3442H16.64V18.4781C16.6359 15.5252 19.0111 13.1208 21.9282 13.1208C24.8452 13.1208 27.2204 15.5252 27.2204 18.4781V19.3442Z" fill="#2D5BE3"/>
<path d="M18.074 21.3032C18.074 21.629 17.8133 21.8888 17.4955 21.8888C17.1737 21.8888 16.917 21.6249 16.917 21.3032C16.917 20.9774 17.1777 20.7176 17.4955 20.7176C17.8133 20.7134 18.074 20.9774 18.074 21.3032Z" fill="white"/>
<path d="M26.9433 21.3032C26.9433 21.629 26.6826 21.8888 26.3648 21.8888C26.0429 21.8888 25.7863 21.6249 25.7863 21.3032C25.7863 20.9774 26.047 20.7176 26.3648 20.7176C26.6866 20.7134 26.9433 20.9774 26.9433 21.3032Z" fill="white"/>
<path d="M57.3097 16.7273V24H56.429V17.6506H56.3864L54.6108 18.8295V17.9347L56.429 16.7273H57.3097ZM59.5966 24.0568C59.4214 24.0568 59.2711 23.9941 59.1456 23.8686C59.0201 23.7431 58.9574 23.5928 58.9574 23.4176C58.9574 23.2424 59.0201 23.0921 59.1456 22.9666C59.2711 22.8411 59.4214 22.7784 59.5966 22.7784C59.7718 22.7784 59.9221 22.8411 60.0476 22.9666C60.1731 23.0921 60.2358 23.2424 60.2358 23.4176C60.2358 23.5336 60.2062 23.6402 60.147 23.7372C60.0902 23.8343 60.0133 23.9124 59.9162 23.9716C59.8215 24.0284 59.715 24.0568 59.5966 24.0568ZM63.8438 24.0994C63.3087 24.0994 62.853 23.9538 62.4766 23.6626C62.1001 23.3691 61.8125 22.9441 61.6136 22.3878C61.4148 21.8291 61.3153 21.1544 61.3153 20.3636C61.3153 19.5777 61.4148 18.9065 61.6136 18.3501C61.8149 17.7914 62.1037 17.3653 62.4801 17.0717C62.8589 16.7758 63.3134 16.6278 63.8438 16.6278C64.3741 16.6278 64.8274 16.7758 65.2038 17.0717C65.5826 17.3653 65.8714 17.7914 66.0703 18.3501C66.2715 18.9065 66.3722 19.5777 66.3722 20.3636C66.3722 21.1544 66.2727 21.8291 66.0739 22.3878C65.875 22.9441 65.5874 23.3691 65.2109 23.6626C64.8345 23.9538 64.3788 24.0994 63.8438 24.0994ZM63.8438 23.3182C64.3741 23.3182 64.786 23.0625 65.0795 22.5511C65.3731 22.0398 65.5199 21.3106 65.5199 20.3636C65.5199 19.7339 65.4524 19.1977 65.3175 18.755C65.1849 18.3123 64.9931 17.9749 64.7422 17.7429C64.4936 17.5109 64.1941 17.3949 63.8438 17.3949C63.3182 17.3949 62.9074 17.6541 62.6115 18.1726C62.3156 18.6887 62.1676 19.419 62.1676 20.3636C62.1676 20.9934 62.2339 21.5284 62.3665 21.9688C62.4991 22.4091 62.6896 22.7441 62.9382 22.9737C63.1892 23.2034 63.491 23.3182 63.8438 23.3182ZM70.0938 24.0994C69.5587 24.0994 69.103 23.9538 68.7266 23.6626C68.3501 23.3691 68.0625 22.9441 67.8636 22.3878C67.6648 21.8291 67.5653 21.1544 67.5653 20.3636C67.5653 19.5777 67.6648 18.9065 67.8636 18.3501C68.0649 17.7914 68.3537 17.3653 68.7301 17.0717C69.1089 16.7758 69.5634 16.6278 70.0938 16.6278C70.6241 16.6278 71.0774 16.7758 71.4538 17.0717C71.8326 17.3653 72.1214 17.7914 72.3203 18.3501C72.5215 18.9065 72.6222 19.5777 72.6222 20.3636C72.6222 21.1544 72.5227 21.8291 72.3239 22.3878C72.125 22.9441 71.8374 23.3691 71.4609 23.6626C71.0845 23.9538 70.6288 24.0994 70.0938 24.0994ZM70.0938 23.3182C70.6241 23.3182 71.036 23.0625 71.3295 22.5511C71.6231 22.0398 71.7699 21.3106 71.7699 20.3636C71.7699 19.7339 71.7024 19.1977 71.5675 18.755C71.4349 18.3123 71.2431 17.9749 70.9922 17.7429C70.7436 17.5109 70.4441 17.3949 70.0938 17.3949C69.5682 17.3949 69.1574 17.6541 68.8615 18.1726C68.5656 18.6887 68.4176 19.419 68.4176 20.3636C68.4176 20.9934 68.4839 21.5284 68.6165 21.9688C68.7491 22.4091 68.9396 22.7441 69.1882 22.9737C69.4392 23.2034 69.741 23.3182 70.0938 23.3182ZM76.3438 24.0994C75.8087 24.0994 75.353 23.9538 74.9766 23.6626C74.6001 23.3691 74.3125 22.9441 74.1136 22.3878C73.9148 21.8291 73.8153 21.1544 73.8153 20.3636C73.8153 19.5777 73.9148 18.9065 74.1136 18.3501C74.3149 17.7914 74.6037 17.3653 74.9801 17.0717C75.3589 16.7758 75.8134 16.6278 76.3438 16.6278C76.8741 16.6278 77.3274 16.7758 77.7038 17.0717C78.0826 17.3653 78.3714 17.7914 78.5703 18.3501C78.7715 18.9065 78.8722 19.5777 78.8722 20.3636C78.8722 21.1544 78.7727 21.8291 78.5739 22.3878C78.375 22.9441 78.0874 23.3691 77.7109 23.6626C77.3345 23.9538 76.8788 24.0994 76.3438 24.0994ZM76.3438 23.3182C76.8741 23.3182 77.286 23.0625 77.5795 22.5511C77.8731 22.0398 78.0199 21.3106 78.0199 20.3636C78.0199 19.7339 77.9524 19.1977 77.8175 18.755C77.6849 18.3123 77.4931 17.9749 77.2422 17.7429C76.9936 17.5109 76.6941 17.3949 76.3438 17.3949C75.8182 17.3949 75.4074 17.6541 75.1115 18.1726C74.8156 18.6887 74.6676 19.419 74.6676 20.3636C74.6676 20.9934 74.7339 21.5284 74.8665 21.9688C74.9991 22.4091 75.1896 22.7441 75.4382 22.9737C75.6892 23.2034 75.991 23.3182 76.3438 23.3182ZM80.5927 24.0568C80.4175 24.0568 80.2672 23.9941 80.1417 23.8686C80.0162 23.7431 79.9535 23.5928 79.9535 23.4176C79.9535 23.2424 80.0162 23.0921 80.1417 22.9666C80.2672 22.8411 80.4175 22.7784 80.5927 22.7784C80.7679 22.7784 80.9182 22.8411 81.0437 22.9666C81.1692 23.0921 81.2319 23.2424 81.2319 23.4176C81.2319 23.5336 81.2023 23.6402 81.1431 23.7372C81.0863 23.8343 81.0094 23.9124 80.9123 23.9716C80.8176 24.0284 80.7111 24.0568 80.5927 24.0568ZM84.8398 24.0994C84.3048 24.0994 83.8491 23.9538 83.4727 23.6626C83.0962 23.3691 82.8086 22.9441 82.6097 22.3878C82.4109 21.8291 82.3114 21.1544 82.3114 20.3636C82.3114 19.5777 82.4109 18.9065 82.6097 18.3501C82.811 17.7914 83.0998 17.3653 83.4762 17.0717C83.855 16.7758 84.3095 16.6278 84.8398 16.6278C85.3701 16.6278 85.8235 16.7758 86.1999 17.0717C86.5787 17.3653 86.8675 17.7914 87.0664 18.3501C87.2676 18.9065 87.3683 19.5777 87.3683 20.3636C87.3683 21.1544 87.2688 21.8291 87.07 22.3878C86.8711 22.9441 86.5835 23.3691 86.207 23.6626C85.8306 23.9538 85.3749 24.0994 84.8398 24.0994ZM84.8398 23.3182C85.3701 23.3182 85.7821 23.0625 86.0756 22.5511C86.3692 22.0398 86.516 21.3106 86.516 20.3636C86.516 19.7339 86.4485 19.1977 86.3136 18.755C86.181 18.3123 85.9892 17.9749 85.7383 17.7429C85.4897 17.5109 85.1902 17.3949 84.8398 17.3949C84.3143 17.3949 83.9035 17.6541 83.6076 18.1726C83.3117 18.6887 83.1637 19.419 83.1637 20.3636C83.1637 20.9934 83.23 21.5284 83.3626 21.9688C83.4951 22.4091 83.6857 22.7441 83.9343 22.9737C84.1853 23.2034 84.4871 23.3182 84.8398 23.3182ZM91.0898 24.0994C90.5548 24.0994 90.0991 23.9538 89.7227 23.6626C89.3462 23.3691 89.0586 22.9441 88.8597 22.3878C88.6609 21.8291 88.5614 21.1544 88.5614 20.3636C88.5614 19.5777 88.6609 18.9065 88.8597 18.3501C89.061 17.7914 89.3498 17.3653 89.7262 17.0717C90.105 16.7758 90.5595 16.6278 91.0898 16.6278C91.6201 16.6278 92.0735 16.7758 92.4499 17.0717C92.8287 17.3653 93.1175 17.7914 93.3164 18.3501C93.5176 18.9065 93.6183 19.5777 93.6183 20.3636C93.6183 21.1544 93.5188 21.8291 93.32 22.3878C93.1211 22.9441 92.8335 23.3691 92.457 23.6626C92.0806 23.9538 91.6249 24.0994 91.0898 24.0994ZM91.0898 23.3182C91.6201 23.3182 92.0321 23.0625 92.3256 22.5511C92.6192 22.0398 92.766 21.3106 92.766 20.3636C92.766 19.7339 92.6985 19.1977 92.5636 18.755C92.431 18.3123 92.2392 17.9749 91.9883 17.7429C91.7397 17.5109 91.4402 17.3949 91.0898 17.3949C90.5643 17.3949 90.1535 17.6541 89.8576 18.1726C89.5617 18.6887 89.4137 19.419 89.4137 20.3636C89.4137 20.9934 89.48 21.5284 89.6126 21.9688C89.7451 22.4091 89.9357 22.7441 90.1843 22.9737C90.4353 23.2034 90.7371 23.3182 91.0898 23.3182ZM97.3398 24.0994C96.8048 24.0994 96.3491 23.9538 95.9727 23.6626C95.5962 23.3691 95.3086 22.9441 95.1097 22.3878C94.9109 21.8291 94.8114 21.1544 94.8114 20.3636C94.8114 19.5777 94.9109 18.9065 95.1097 18.3501C95.311 17.7914 95.5998 17.3653 95.9762 17.0717C96.355 16.7758 96.8095 16.6278 97.3398 16.6278C97.8701 16.6278 98.3235 16.7758 98.6999 17.0717C99.0787 17.3653 99.3675 17.7914 99.5664 18.3501C99.7676 18.9065 99.8683 19.5777 99.8683 20.3636C99.8683 21.1544 99.7688 21.8291 99.57 22.3878C99.3711 22.9441 99.0835 23.3691 98.707 23.6626C98.3306 23.9538 97.8749 24.0994 97.3398 24.0994ZM97.3398 23.3182C97.8701 23.3182 98.2821 23.0625 98.5756 22.5511C98.8692 22.0398 99.016 21.3106 99.016 20.3636C99.016 19.7339 98.9485 19.1977 98.8136 18.755C98.681 18.3123 98.4892 17.9749 98.2383 17.7429C97.9897 17.5109 97.6902 17.3949 97.3398 17.3949C96.8143 17.3949 96.4035 17.6541 96.1076 18.1726C95.8117 18.6887 95.6637 19.419 95.6637 20.3636C95.6637 20.9934 95.73 21.5284 95.8626 21.9688C95.9951 22.4091 96.1857 22.7441 96.4343 22.9737C96.6853 23.2034 96.9871 23.3182 97.3398 23.3182ZM103.363 22.7216V18.0341H104.158V22.7216H103.363ZM101.417 20.7756V19.9801H106.104V20.7756H101.417ZM59.2273 30.5455L57.2102 36H56.358L54.3409 30.5455H55.25L56.7557 34.892H56.8125L58.3182 30.5455H59.2273ZM62.4251 36.1136C61.8995 36.1136 61.4461 35.9976 61.065 35.7656C60.6862 35.5312 60.3938 35.2045 60.1879 34.7855C59.9843 34.3641 59.8825 33.8741 59.8825 33.3153C59.8825 32.7566 59.9843 32.2642 60.1879 31.8381C60.3938 31.4096 60.6803 31.0758 61.0472 30.8366C61.4165 30.5952 61.8474 30.4744 62.3398 30.4744C62.6239 30.4744 62.9045 30.5218 63.1815 30.6165C63.4585 30.7112 63.7106 30.8651 63.9379 31.0781C64.1651 31.2888 64.3462 31.5682 64.4812 31.9162C64.6161 32.2642 64.6836 32.6927 64.6836 33.2017V33.5568H60.479V32.8324H63.8313C63.8313 32.5246 63.7698 32.25 63.6467 32.0085C63.5259 31.767 63.3531 31.5765 63.1282 31.4368C62.9057 31.2971 62.6429 31.2273 62.3398 31.2273C62.006 31.2273 61.7172 31.3101 61.4734 31.4759C61.2319 31.6392 61.046 31.8523 60.9158 32.1151C60.7856 32.3778 60.7205 32.6596 60.7205 32.9602V33.4432C60.7205 33.8551 60.7915 34.2043 60.9336 34.4908C61.078 34.7749 61.2781 34.9915 61.5337 35.1406C61.7894 35.2874 62.0865 35.3608 62.4251 35.3608C62.6452 35.3608 62.8441 35.33 63.0217 35.2685C63.2016 35.2045 63.3567 35.1098 63.4869 34.9844C63.6171 34.8565 63.7177 34.6979 63.7887 34.5085L64.5984 34.7358C64.5131 35.0104 64.3699 35.2519 64.1687 35.4602C63.9674 35.6662 63.7189 35.8272 63.4229 35.9432C63.127 36.0568 62.7944 36.1136 62.4251 36.1136ZM66.7965 32.7188V36H65.9585V30.5455H66.7681V31.3977H66.8391C66.967 31.1207 67.1611 30.8982 67.4215 30.7301C67.6819 30.5597 68.0181 30.4744 68.43 30.4744C68.7994 30.4744 69.1225 30.5502 69.3995 30.7017C69.6765 30.8509 69.8919 31.0781 70.0458 31.3835C70.1997 31.6866 70.2766 32.0701 70.2766 32.5341V36H69.4386V32.5909C69.4386 32.1624 69.3273 31.8286 69.1048 31.5895C68.8822 31.348 68.5768 31.2273 68.1886 31.2273C67.921 31.2273 67.6819 31.2853 67.4712 31.4013C67.2629 31.5173 67.0984 31.6866 66.9776 31.9091C66.8569 32.1316 66.7965 32.4015 66.7965 32.7188ZM74.1802 30.5455V31.2557H71.3535V30.5455H74.1802ZM72.1774 29.2386H73.0154V34.4375C73.0154 34.6742 73.0498 34.8518 73.1184 34.9702C73.1895 35.0862 73.2794 35.1643 73.3883 35.2045C73.4996 35.2424 73.6168 35.2614 73.7399 35.2614C73.8322 35.2614 73.908 35.2566 73.9672 35.2472C74.0263 35.2353 74.0737 35.2259 74.1092 35.2188L74.2797 35.9716C74.2228 35.9929 74.1435 36.0142 74.0417 36.0355C73.9399 36.0592 73.8109 36.071 73.6547 36.071C73.4179 36.071 73.1859 36.0201 72.9586 35.9183C72.7337 35.8165 72.5467 35.6615 72.3975 35.4531C72.2508 35.2448 72.1774 34.982 72.1774 34.6648V29.2386ZM77.6692 36.1136C77.1436 36.1136 76.6903 35.9976 76.3091 35.7656C75.9303 35.5312 75.638 35.2045 75.432 34.7855C75.2284 34.3641 75.1266 33.8741 75.1266 33.3153C75.1266 32.7566 75.2284 32.2642 75.432 31.8381C75.638 31.4096 75.9244 31.0758 76.2914 30.8366C76.6607 30.5952 77.0916 30.4744 77.584 30.4744C77.8681 30.4744 78.1486 30.5218 78.4256 30.6165C78.7026 30.7112 78.9547 30.8651 79.182 31.0781C79.4093 31.2888 79.5904 31.5682 79.7253 31.9162C79.8603 32.2642 79.9277 32.6927 79.9277 33.2017V33.5568H75.7232V32.8324H79.0755C79.0755 32.5246 79.0139 32.25 78.8908 32.0085C78.7701 31.767 78.5972 31.5765 78.3723 31.4368C78.1498 31.2971 77.887 31.2273 77.584 31.2273C77.2502 31.2273 76.9614 31.3101 76.7175 31.4759C76.476 31.6392 76.2902 31.8523 76.16 32.1151C76.0298 32.3778 75.9647 32.6596 75.9647 32.9602V33.4432C75.9647 33.8551 76.0357 34.2043 76.1777 34.4908C76.3221 34.7749 76.5222 34.9915 76.7779 35.1406C77.0336 35.2874 77.3307 35.3608 77.6692 35.3608C77.8894 35.3608 78.0882 35.33 78.2658 35.2685C78.4457 35.2045 78.6008 35.1098 78.731 34.9844C78.8612 34.8565 78.9618 34.6979 79.0328 34.5085L79.8425 34.7358C79.7573 35.0104 79.6141 35.2519 79.4128 35.4602C79.2116 35.6662 78.963 35.8272 78.6671 35.9432C78.3712 36.0568 78.0385 36.1136 77.6692 36.1136ZM85.0662 31.767L84.3134 31.9801C84.266 31.8546 84.1962 31.7327 84.1039 31.6143C84.0139 31.4936 83.8908 31.3942 83.7346 31.3161C83.5783 31.2379 83.3783 31.1989 83.1344 31.1989C82.8006 31.1989 82.5224 31.2758 82.2999 31.4297C82.0797 31.5812 81.9696 31.7741 81.9696 32.0085C81.9696 32.2169 82.0454 32.3814 82.1969 32.5021C82.3484 32.6229 82.5852 32.7235 82.9071 32.804L83.7168 33.0028C84.2045 33.1212 84.5679 33.3023 84.807 33.5462C85.0461 33.7876 85.1657 34.099 85.1657 34.4801C85.1657 34.7926 85.0757 35.072 84.8958 35.3182C84.7182 35.5644 84.4696 35.7585 84.15 35.9006C83.8304 36.0426 83.4587 36.1136 83.035 36.1136C82.4786 36.1136 82.0182 35.9929 81.6536 35.7514C81.289 35.5099 81.0582 35.1572 80.9611 34.6932L81.7566 34.4943C81.8323 34.7879 81.9756 35.008 82.1863 35.1548C82.3993 35.3016 82.6775 35.375 83.0208 35.375C83.4114 35.375 83.7215 35.2921 83.9512 35.1264C84.1832 34.9583 84.2992 34.7571 84.2992 34.5227C84.2992 34.3333 84.2329 34.1747 84.1003 34.0469C83.9677 33.9167 83.7641 33.8196 83.4895 33.7557L82.5804 33.5426C82.0809 33.4242 81.714 33.2408 81.4796 32.9922C81.2476 32.7412 81.1316 32.4276 81.1316 32.0511C81.1316 31.7434 81.218 31.4711 81.3908 31.2344C81.566 30.9976 81.8039 30.8118 82.1046 30.6768C82.4076 30.5419 82.7509 30.4744 83.1344 30.4744C83.6742 30.4744 84.098 30.5928 84.4057 30.8295C84.7158 31.0663 84.936 31.3788 85.0662 31.767ZM91.5266 36.1136C91.0011 36.1136 90.5477 35.9976 90.1665 35.7656C89.7878 35.5312 89.4954 35.2045 89.2894 34.7855C89.0858 34.3641 88.984 33.8741 88.984 33.3153C88.984 32.7566 89.0858 32.2642 89.2894 31.8381C89.4954 31.4096 89.7818 31.0758 90.1488 30.8366C90.5181 30.5952 90.949 30.4744 91.4414 30.4744C91.7255 30.4744 92.006 30.5218 92.283 30.6165C92.56 30.7112 92.8121 30.8651 93.0394 31.0781C93.2667 31.2888 93.4478 31.5682 93.5827 31.9162C93.7177 32.2642 93.7852 32.6927 93.7852 33.2017V33.5568H89.5806V32.8324H92.9329C92.9329 32.5246 92.8713 32.25 92.7482 32.0085C92.6275 31.767 92.4547 31.5765 92.2298 31.4368C92.0072 31.2971 91.7444 31.2273 91.4414 31.2273C91.1076 31.2273 90.8188 31.3101 90.5749 31.4759C90.3335 31.6392 90.1476 31.8523 90.0174 32.1151C89.8872 32.3778 89.8221 32.6596 89.8221 32.9602V33.4432C89.8221 33.8551 89.8931 34.2043 90.0352 34.4908C90.1796 34.7749 90.3796 34.9915 90.6353 35.1406C90.891 35.2874 91.1881 35.3608 91.5266 35.3608C91.7468 35.3608 91.9457 35.33 92.1232 35.2685C92.3031 35.2045 92.4582 35.1098 92.5884 34.9844C92.7186 34.8565 92.8192 34.6979 92.8903 34.5085L93.6999 34.7358C93.6147 35.0104 93.4715 35.2519 93.2702 35.4602C93.069 35.6662 92.8204 35.8272 92.5245 35.9432C92.2286 36.0568 91.896 36.1136 91.5266 36.1136ZM95.8981 32.7188V36H95.06V30.5455H95.8697V31.3977H95.9407C96.0685 31.1207 96.2627 30.8982 96.5231 30.7301C96.7835 30.5597 97.1197 30.4744 97.5316 30.4744C97.9009 30.4744 98.2241 30.5502 98.5011 30.7017C98.7781 30.8509 98.9935 31.0781 99.1474 31.3835C99.3013 31.6866 99.3782 32.0701 99.3782 32.5341V36H98.5401V32.5909C98.5401 32.1624 98.4289 31.8286 98.2063 31.5895C97.9838 31.348 97.6784 31.2273 97.2901 31.2273C97.0226 31.2273 96.7835 31.2853 96.5728 31.4013C96.3645 31.5173 96.1999 31.6866 96.0792 31.9091C95.9585 32.1316 95.8981 32.4015 95.8981 32.7188ZM103.708 36V35.3608L106.108 32.733C106.39 32.4252 106.622 32.1577 106.805 31.9304C106.987 31.7008 107.122 31.4853 107.209 31.2841C107.299 31.0805 107.344 30.8674 107.344 30.6449C107.344 30.3892 107.283 30.1679 107.16 29.9808C107.039 29.7938 106.873 29.6494 106.662 29.5476C106.452 29.4458 106.215 29.3949 105.952 29.3949C105.673 29.3949 105.429 29.4529 105.221 29.5689C105.015 29.6825 104.855 29.8423 104.741 30.0483C104.63 30.2543 104.574 30.4957 104.574 30.7727H103.736C103.736 30.3466 103.835 29.9725 104.031 29.6506C104.228 29.3286 104.495 29.0777 104.834 28.8977C105.175 28.7178 105.557 28.6278 105.981 28.6278C106.407 28.6278 106.784 28.7178 107.113 28.8977C107.443 29.0777 107.701 29.3203 107.888 29.6257C108.075 29.9311 108.168 30.2708 108.168 30.6449C108.168 30.9124 108.12 31.174 108.023 31.4297C107.928 31.683 107.762 31.9659 107.525 32.2784C107.291 32.5885 106.965 32.9673 106.549 33.4148L104.915 35.1619V35.2188H108.296V36H103.708ZM112.135 36.0994C111.6 36.0994 111.144 35.9538 110.768 35.6626C110.391 35.3691 110.104 34.9441 109.905 34.3878C109.706 33.8291 109.606 33.1544 109.606 32.3636C109.606 31.5777 109.706 30.9065 109.905 30.3501C110.106 29.7914 110.395 29.3653 110.771 29.0717C111.15 28.7758 111.604 28.6278 112.135 28.6278C112.665 28.6278 113.118 28.7758 113.495 29.0717C113.874 29.3653 114.162 29.7914 114.361 30.3501C114.563 30.9065 114.663 31.5777 114.663 32.3636C114.663 33.1544 114.564 33.8291 114.365 34.3878C114.166 34.9441 113.878 35.3691 113.502 35.6626C113.126 35.9538 112.67 36.0994 112.135 36.0994ZM112.135 35.3182C112.665 35.3182 113.077 35.0625 113.371 34.5511C113.664 34.0398 113.811 33.3106 113.811 32.3636C113.811 31.7339 113.743 31.1977 113.608 30.755C113.476 30.3123 113.284 29.9749 113.033 29.7429C112.785 29.5109 112.485 29.3949 112.135 29.3949C111.609 29.3949 111.198 29.6541 110.903 30.1726C110.607 30.6887 110.459 31.419 110.459 32.3636C110.459 32.9934 110.525 33.5284 110.657 33.9688C110.79 34.4091 110.981 34.7441 111.229 34.9737C111.48 35.2034 111.782 35.3182 112.135 35.3182ZM116.013 36V35.3608L118.413 32.733C118.695 32.4252 118.927 32.1577 119.109 31.9304C119.291 31.7008 119.426 31.4853 119.514 31.2841C119.604 31.0805 119.649 30.8674 119.649 30.6449C119.649 30.3892 119.587 30.1679 119.464 29.9808C119.344 29.7938 119.178 29.6494 118.967 29.5476C118.756 29.4458 118.52 29.3949 118.257 29.3949C117.978 29.3949 117.734 29.4529 117.525 29.5689C117.319 29.6825 117.16 29.8423 117.046 30.0483C116.935 30.2543 116.879 30.4957 116.879 30.7727H116.041C116.041 30.3466 116.139 29.9725 116.336 29.6506C116.532 29.3286 116.8 29.0777 117.138 28.8977C117.479 28.7178 117.862 28.6278 118.285 28.6278C118.711 28.6278 119.089 28.7178 119.418 28.8977C119.747 29.0777 120.005 29.3203 120.192 29.6257C120.379 29.9311 120.473 30.2708 120.473 30.6449C120.473 30.9124 120.424 31.174 120.327 31.4297C120.233 31.683 120.067 31.9659 119.83 32.2784C119.596 32.5885 119.27 32.9673 118.854 33.4148L117.22 35.1619V35.2188H120.601V36H116.013ZM122.067 36V35.3608L124.468 32.733C124.75 32.4252 124.982 32.1577 125.164 31.9304C125.346 31.7008 125.481 31.4853 125.569 31.2841C125.659 31.0805 125.704 30.8674 125.704 30.6449C125.704 30.3892 125.642 30.1679 125.519 29.9808C125.398 29.7938 125.233 29.6494 125.022 29.5476C124.811 29.4458 124.574 29.3949 124.312 29.3949C124.032 29.3949 123.788 29.4529 123.58 29.5689C123.374 29.6825 123.214 29.8423 123.101 30.0483C122.989 30.2543 122.934 30.4957 122.934 30.7727H122.096C122.096 30.3466 122.194 29.9725 122.39 29.6506C122.587 29.3286 122.854 29.0777 123.193 28.8977C123.534 28.7178 123.916 28.6278 124.34 28.6278C124.766 28.6278 125.144 28.7178 125.473 28.8977C125.802 29.0777 126.06 29.3203 126.247 29.6257C126.434 29.9311 126.528 30.2708 126.528 30.6449C126.528 30.9124 126.479 31.174 126.382 31.4297C126.287 31.683 126.122 31.9659 125.885 32.2784C125.65 32.5885 125.325 32.9673 124.908 33.4148L123.275 35.1619V35.2188H126.655V36H122.067Z" fill="black" fill-opacity="0.9"/>
</svg>
