<svg width="18" height="20" viewBox="0 0 18 20" fill="none" xmlns="http://www.w3.org/2000/svg">
<path fill-rule="evenodd" clip-rule="evenodd" d="M0.0326507 2.5063C0.0163254 2.97512 0.00567839 3.44004 0.0017745 3.9007V3.9078C0.0014196 3.95074 0.0014196 3.99333 0.0010647 4.03592C0.000354899 4.10619 0 4.17646 0 4.24637C0 4.2957 0.000354899 4.34503 0.000354899 4.39436C0.000354899 4.45718 0.000709799 4.51964 0.0010647 4.58211C0.0014196 4.63428 0.0021294 4.68609 0.0028392 4.73791C0.00354899 4.79788 0.00425879 4.85786 0.00496859 4.91784C0.00567839 4.96966 0.00674309 5.02147 0.00780779 5.07364C0.00887248 5.13327 0.00993718 5.19253 0.0117117 5.25216C0.0131313 5.30468 0.0145509 5.35721 0.0159705 5.40973C0.017745 5.46758 0.0191646 5.52578 0.021294 5.58363C0.0230685 5.63651 0.024843 5.68904 0.0269724 5.74156C0.0291017 5.79941 0.0312311 5.85761 0.0337154 5.91546C0.0358448 5.96692 0.0383291 6.01838 0.0408134 6.06984C0.0436526 6.1284 0.0464918 6.18696 0.0496859 6.24516C0.0525251 6.29627 0.0550094 6.34738 0.0582035 6.39848C0.0613976 6.45633 0.0649466 6.51382 0.0684956 6.57132C0.0716897 6.62242 0.0748838 6.67353 0.0784328 6.72463C0.0823367 6.78248 0.0865955 6.84033 0.0908542 6.89782C0.0944032 6.94787 0.0983071 6.99755 0.102211 7.04724C0.106825 7.10686 0.111793 7.16613 0.117117 7.2254C0.121021 7.27295 0.125279 7.32051 0.129538 7.36771C0.135217 7.42875 0.140895 7.4898 0.146928 7.55084C0.151187 7.59662 0.155801 7.64205 0.160415 7.68783C0.166803 7.75171 0.173901 7.81524 0.180999 7.87877C0.185612 7.921 0.189871 7.96288 0.19484 8.00511C0.203002 8.07503 0.21152 8.14494 0.220038 8.2145C0.224296 8.24964 0.228555 8.28513 0.232814 8.32026C0.244171 8.41041 0.256592 8.5002 0.269014 8.58998C0.271143 8.60454 0.272918 8.61909 0.275047 8.63364C0.289953 8.73869 0.305568 8.84338 0.321539 8.94772C0.324378 8.96618 0.327572 8.98428 0.330411 9.00273C0.343898 9.08755 0.357739 9.17273 0.371935 9.2572C0.377258 9.28843 0.382936 9.3193 0.388615 9.35053C0.401036 9.42187 0.413458 9.4932 0.426944 9.56383C0.433687 9.59932 0.44043 9.63481 0.447528 9.6703C0.460304 9.73631 0.472726 9.80268 0.486212 9.86833C0.493665 9.9056 0.501828 9.94286 0.509281 9.98013C0.522412 10.0437 0.535898 10.1075 0.549739 10.1707C0.558257 10.209 0.566774 10.247 0.575292 10.285C0.589133 10.3471 0.603329 10.4092 0.61788 10.4706C0.627107 10.5093 0.636335 10.548 0.645917 10.5866C0.660468 10.6473 0.675373 10.7077 0.690634 10.768C0.700571 10.8067 0.710509 10.8454 0.720446 10.8841C0.736061 10.9444 0.752032 11.0044 0.768357 11.064C0.778649 11.102 0.789296 11.1399 0.799588 11.1779C0.816624 11.2382 0.833659 11.2982 0.851049 11.3582C0.861696 11.3951 0.872698 11.4317 0.883699 11.4686C0.902154 11.5296 0.920609 11.5903 0.939774 11.651C0.950775 11.6861 0.961777 11.7213 0.972779 11.7564C0.992654 11.8185 1.01288 11.8803 1.03347 11.942C1.04447 11.975 1.05547 12.0084 1.06683 12.0414C1.08883 12.1056 1.11119 12.1695 1.1339 12.233C1.14455 12.2632 1.1552 12.2934 1.1662 12.3232C1.19104 12.391 1.21624 12.4587 1.24179 12.5262C1.25138 12.5517 1.26096 12.5773 1.27054 12.6025C1.30035 12.6791 1.33087 12.7554 1.36175 12.8317C1.36814 12.8474 1.37417 12.863 1.3802 12.8782C1.49484 13.1575 1.61799 13.4322 1.75036 13.702C1.75569 13.7126 1.76101 13.7229 1.76598 13.7332C1.80466 13.8113 1.8437 13.889 1.88381 13.966C1.89374 13.9855 1.90439 14.0047 1.91433 14.0238C1.95017 14.092 1.98602 14.1598 2.02293 14.2269C2.0357 14.2506 2.04919 14.2741 2.06232 14.2975C2.09746 14.3603 2.13259 14.4231 2.16879 14.4852C2.18334 14.5104 2.19825 14.5356 2.21315 14.5608C2.24864 14.6208 2.28413 14.6808 2.32069 14.7404C2.33666 14.7667 2.35334 14.7929 2.36931 14.8192C2.40551 14.877 2.44171 14.9349 2.47897 14.9924C2.49636 15.019 2.51375 15.0456 2.53114 15.0722C2.56841 15.129 2.60603 15.1854 2.64436 15.2415C2.66246 15.2678 2.68056 15.2944 2.69865 15.3207C2.73734 15.3767 2.77673 15.4324 2.81648 15.4878C2.83494 15.5137 2.85339 15.5393 2.8722 15.5652C2.91301 15.6209 2.95418 15.6763 2.99606 15.7316C3.01487 15.7565 3.03333 15.781 3.05213 15.8054C3.09543 15.8619 3.13944 15.9176 3.18416 15.9733C3.20226 15.996 3.22036 16.0187 3.23846 16.0415C3.2853 16.0993 3.33321 16.1572 3.38148 16.2143C3.39816 16.2342 3.41484 16.254 3.43152 16.2739C3.48369 16.3353 3.53693 16.396 3.59052 16.4563C3.604 16.4716 3.61749 16.4872 3.63133 16.5025C3.69202 16.5703 3.75377 16.6373 3.81623 16.7037C3.82369 16.7115 3.83078 16.7197 3.83824 16.7275C4.12358 17.0298 4.42879 17.3216 4.75459 17.6027C4.76701 17.6133 4.77943 17.6236 4.79185 17.6342C4.86035 17.6928 4.9292 17.7506 4.99947 17.8081C5.01792 17.823 5.03673 17.838 5.05519 17.8529C5.12013 17.9054 5.18543 17.9576 5.2518 18.0094C5.27451 18.0271 5.29758 18.0445 5.3203 18.0619C5.38347 18.1105 5.44735 18.1588 5.51194 18.2067C5.5375 18.2255 5.5634 18.2443 5.58931 18.2631C5.65248 18.3089 5.71565 18.3547 5.78025 18.4001C5.80793 18.4196 5.83632 18.4392 5.86436 18.4587C5.92788 18.5027 5.99212 18.5467 6.05742 18.59C6.08688 18.6095 6.11634 18.629 6.14579 18.6485C6.21074 18.6911 6.2764 18.7337 6.34276 18.7756C6.37328 18.7951 6.4038 18.8143 6.43468 18.8334C6.50176 18.8753 6.56919 18.9165 6.63768 18.9577C6.66856 18.9765 6.69944 18.9949 6.73067 19.0134C6.80058 19.0549 6.87156 19.0957 6.9429 19.1365C6.97342 19.1539 7.00394 19.1713 7.03446 19.1887C7.10863 19.2302 7.18387 19.2714 7.25947 19.3122C7.28857 19.3278 7.31732 19.3438 7.34642 19.3591C7.42662 19.4016 7.50825 19.4439 7.59023 19.4858C7.61579 19.4989 7.64134 19.512 7.66689 19.5251C7.75739 19.5709 7.84931 19.616 7.94194 19.6604C7.96004 19.6689 7.97743 19.6778 7.99553 19.6866C8.22053 19.7942 8.45157 19.8989 8.68865 20C8.92607 19.8989 9.15711 19.7945 9.38177 19.6866C9.39987 19.6781 9.41725 19.6692 9.43535 19.6604C9.52798 19.6156 9.6199 19.5709 9.7104 19.5251C9.73631 19.512 9.76151 19.4989 9.78706 19.4858C9.86904 19.4439 9.95031 19.4016 10.0309 19.3591C10.06 19.3434 10.0887 19.3278 10.1178 19.3122C10.1934 19.2714 10.2687 19.2302 10.3428 19.1887C10.3737 19.1713 10.4039 19.1539 10.4344 19.1365C10.5057 19.0957 10.5767 19.0549 10.6466 19.0134C10.6779 18.9949 10.7087 18.9761 10.7396 18.9577C10.8078 18.9165 10.8755 18.8753 10.9426 18.8334C10.9735 18.8143 11.004 18.7948 11.0345 18.7756C11.1009 18.7337 11.1666 18.6911 11.2315 18.6485C11.261 18.629 11.2908 18.6095 11.3199 18.59C11.3848 18.5467 11.4491 18.5027 11.5129 18.4587C11.541 18.4392 11.569 18.42 11.597 18.4001C11.6613 18.3547 11.7248 18.3093 11.788 18.2631C11.8139 18.2443 11.8398 18.2255 11.8654 18.2067C11.9299 18.1588 11.9938 18.1105 12.057 18.0619C12.0797 18.0445 12.1028 18.0268 12.1255 18.0094C12.1919 17.9576 12.2572 17.9054 12.3221 17.8529C12.3406 17.838 12.3594 17.823 12.3778 17.8081C12.4481 17.7506 12.5169 17.6924 12.5854 17.6342C12.5979 17.6236 12.6103 17.6133 12.6227 17.6027C12.9485 17.3216 13.2537 17.0298 13.5391 16.7275C13.5465 16.7197 13.5536 16.7115 13.5611 16.7037C13.6235 16.637 13.6853 16.5699 13.746 16.5025C13.7598 16.4872 13.7729 16.4716 13.7868 16.4563C13.8404 16.396 13.8936 16.3353 13.9458 16.2739C13.9628 16.254 13.9791 16.2342 13.9958 16.2143C14.0441 16.1568 14.092 16.0993 14.1388 16.0415C14.1573 16.0187 14.175 15.996 14.1931 15.9733C14.2375 15.9176 14.2815 15.8615 14.3248 15.8054C14.3436 15.781 14.3624 15.7561 14.3809 15.7316C14.4228 15.6763 14.4639 15.6209 14.5047 15.5652C14.5235 15.5396 14.542 15.5137 14.5605 15.4878C14.6002 15.4324 14.6396 15.3767 14.6783 15.3207C14.6964 15.2944 14.7145 15.2681 14.7326 15.2415C14.7709 15.1854 14.8085 15.129 14.8458 15.0722C14.8632 15.0456 14.8806 15.019 14.898 14.9924C14.9349 14.9349 14.9714 14.877 15.0076 14.8192C15.024 14.7929 15.0403 14.767 15.0563 14.7404C15.0928 14.6808 15.1283 14.6208 15.1638 14.5608C15.1787 14.5356 15.1936 14.5104 15.2081 14.4852C15.2443 14.4231 15.2795 14.3603 15.3146 14.2975C15.3277 14.2741 15.3412 14.2506 15.354 14.2269C15.3909 14.1594 15.4271 14.0916 15.4626 14.0238C15.4729 14.0047 15.4832 13.9855 15.4931 13.966C15.5332 13.889 15.5723 13.8113 15.611 13.7332C15.6163 13.7225 15.6216 13.7122 15.6266 13.702C15.759 13.4322 15.8821 13.1575 15.9967 12.8782C16.0031 12.863 16.0092 12.8474 16.0155 12.8317C16.0464 12.7558 16.0769 12.6795 16.1068 12.6025C16.1167 12.5773 16.1259 12.5517 16.1355 12.5262C16.1611 12.4587 16.1866 12.3913 16.2111 12.3232C16.2221 12.2934 16.2324 12.2628 16.2434 12.233C16.2661 12.1691 16.2888 12.1056 16.3105 12.0414C16.3218 12.0084 16.3328 11.975 16.3438 11.942C16.3644 11.8803 16.385 11.8185 16.4045 11.7564C16.4159 11.7213 16.4265 11.6861 16.4375 11.651C16.4563 11.5903 16.4751 11.5296 16.4936 11.4686C16.5046 11.432 16.5152 11.3951 16.5262 11.3582C16.5436 11.2982 16.561 11.2382 16.5777 11.1779C16.5884 11.1399 16.5986 11.1023 16.6089 11.064C16.6253 11.004 16.6412 10.944 16.6568 10.8841C16.6671 10.8454 16.6771 10.8067 16.6867 10.768C16.7019 10.7077 16.7168 10.6473 16.7314 10.5866C16.7406 10.548 16.7502 10.5096 16.7594 10.4706C16.774 10.4088 16.7882 10.3467 16.802 10.285C16.8105 10.247 16.819 10.209 16.8276 10.1707C16.8414 10.1075 16.8545 10.0437 16.868 9.98013C16.8758 9.94286 16.8836 9.9056 16.8911 9.86833C16.9042 9.80232 16.917 9.73631 16.9298 9.6703C16.9365 9.63481 16.9436 9.59932 16.9503 9.56383C16.9635 9.49285 16.9759 9.42151 16.9887 9.35053C16.994 9.3193 17 9.28843 17.005 9.2572C17.0196 9.17273 17.033 9.08791 17.0465 9.00273C17.0494 8.98428 17.0526 8.96618 17.0554 8.94772C17.0717 8.84338 17.0873 8.73869 17.1019 8.63364C17.104 8.61909 17.1058 8.60454 17.1079 8.58998C17.1203 8.5002 17.1328 8.41076 17.1441 8.32026C17.1487 8.28513 17.1526 8.24964 17.1569 8.2145C17.1654 8.14494 17.1739 8.07503 17.1821 8.00511C17.1871 7.96323 17.1913 7.921 17.1959 7.87877C17.203 7.81524 17.2098 7.75171 17.2165 7.68783C17.2211 7.6424 17.2254 7.59662 17.23 7.55084C17.236 7.4898 17.2417 7.42911 17.2474 7.36771C17.2517 7.32051 17.2556 7.27295 17.2598 7.2254C17.2648 7.16613 17.2698 7.10686 17.2747 7.04724C17.2786 6.99755 17.2822 6.94751 17.2861 6.89782C17.2903 6.83998 17.2946 6.78248 17.2985 6.72463C17.3021 6.67353 17.3053 6.62242 17.3084 6.57132C17.312 6.51382 17.3155 6.45633 17.3187 6.39848C17.3216 6.34738 17.3244 6.29627 17.3273 6.24516C17.3304 6.18696 17.3333 6.1284 17.3361 6.06984C17.3386 6.01838 17.3407 5.96692 17.3432 5.91546C17.3457 5.85761 17.3478 5.79977 17.3503 5.74156C17.3525 5.68904 17.3542 5.63651 17.356 5.58363C17.3578 5.52578 17.3595 5.46793 17.3613 5.40973C17.3627 5.35721 17.3642 5.30468 17.3656 5.25216C17.367 5.19289 17.3681 5.13327 17.3695 5.07364C17.3706 5.02183 17.3716 4.97001 17.3723 4.91784C17.3734 4.85786 17.3737 4.79788 17.3745 4.73791C17.3752 4.68609 17.3759 4.63428 17.3762 4.58211C17.3766 4.51964 17.3766 4.45683 17.3769 4.39436C17.3769 4.34503 17.3773 4.2957 17.3773 4.24637C17.3773 4.17646 17.3769 4.10619 17.3766 4.03592C17.3762 3.99297 17.3762 3.95039 17.3759 3.9078V3.9007C17.372 3.44004 17.3613 2.97512 17.345 2.5063C16.5798 2.4591 15.8164 2.37179 15.0598 2.24296H15.0602C12.8278 1.86358 10.6559 1.12539 8.689 0C6.72144 1.12539 4.54981 1.86358 2.31749 2.24296H2.31785C1.5612 2.37179 0.797459 2.4591 0.0326507 2.5063Z" fill="#25C027"/>
<path d="M4.87964 9.39349L7.27876 11.7628L13.1151 5.82568L14.3285 7.01921L7.29295 14.174L3.67937 10.6001L4.87964 9.39349Z" fill="white"/>
</svg>
