<svg width="10" height="10" viewBox="0 0 10 10" fill="none" xmlns="http://www.w3.org/2000/svg">
<mask id="mask0" mask-type="alpha" maskUnits="userSpaceOnUse" x="0" y="0" width="10" height="10">
<path d="M4.56652 0.484246C4.76047 -0.112669 5.60495 -0.112668 5.79889 0.484246L6.49187 2.61699C6.5786 2.88394 6.82737 3.06468 7.10805 3.06468H9.35055C9.97819 3.06468 10.2391 3.86782 9.73138 4.23673L7.91716 5.55484C7.69008 5.71983 7.59506 6.01227 7.68179 6.27921L8.37477 8.41196C8.56871 9.00887 7.88552 9.50525 7.37775 9.13633L5.56353 7.81822C5.33645 7.65324 5.02896 7.65324 4.80188 7.81822L2.98766 9.13633C2.4799 9.50525 1.7967 9.00887 1.99065 8.41196L2.68362 6.27921C2.77036 6.01227 2.67534 5.71983 2.44826 5.55484L0.634037 4.23673C0.126271 3.86782 0.387229 3.06468 1.01486 3.06468H3.25736C3.53805 3.06468 3.78681 2.88394 3.87355 2.61699L4.56652 0.484246Z" fill="#E5E5E5"/>
</mask>
<g mask="url(#mask0)">
<path d="M4.53088 0.484246C4.72483 -0.112669 5.5693 -0.112668 5.76325 0.484246L6.45622 2.61699C6.54296 2.88394 6.79172 3.06468 7.07241 3.06468H9.31491C9.94254 3.06468 10.2035 3.86782 9.69573 4.23673L7.88151 5.55484C7.65443 5.71983 7.55941 6.01227 7.64615 6.27921L8.33912 8.41196C8.53307 9.00887 7.84988 9.50525 7.34211 9.13633L5.52789 7.81822C5.30081 7.65324 4.99332 7.65324 4.76624 7.81822L2.95202 9.13633C2.44425 9.50525 1.76106 9.00887 1.95501 8.41196L2.64798 6.27921C2.73471 6.01227 2.63969 5.71983 2.41261 5.55484L0.598393 4.23673C0.0906269 3.86782 0.351584 3.06468 0.979217 3.06468H3.22172C3.5024 3.06468 3.75117 2.88394 3.83791 2.61699L4.53088 0.484246Z" fill="#FFE600"/>
<rect x="6.88428" y="-0.782593" width="4.91508" height="10.6493" fill="#E5E5E5"/>
</g>
</svg>
