<svg width="10" height="10" viewBox="0 0 10 10" fill="none" xmlns="http://www.w3.org/2000/svg">
<path d="M4.2008 0.484246C4.39475 -0.112669 5.23922 -0.112668 5.43317 0.484246L6.12614 2.61699C6.21288 2.88394 6.46164 3.06468 6.74233 3.06468H8.98483C9.61246 3.06468 9.87342 3.86782 9.36566 4.23673L7.55143 5.55484C7.32435 5.71983 7.22934 6.01227 7.31607 6.27921L8.00904 8.41196C8.20299 9.00887 7.5198 9.50525 7.01203 9.13633L5.19781 7.81822C4.97073 7.65324 4.66324 7.65324 4.43616 7.81822L2.62194 9.13633C2.11417 9.50525 1.43098 9.00887 1.62493 8.41196L2.3179 6.27921C2.40464 6.01227 2.30962 5.71983 2.08254 5.55484L0.268315 4.23673C-0.239451 3.86782 0.0215061 3.06468 0.649139 3.06468H2.89164C3.17233 3.06468 3.42109 2.88394 3.50783 2.61699L4.2008 0.484246Z" fill="#FFE600"/>
</svg>
